<svg xmlns="http://www.w3.org/2000/svg" xmlns:xlink="http://www.w3.org/1999/xlink" width="600" zoomAndPan="magnify" viewBox="0 0 450 449.999984" height="600" preserveAspectRatio="xMidYMid meet" version="1.2"><defs><clipPath id="ef63445dda"><path d="M 61.507812 96 L 330.910156 96 L 330.910156 186 L 61.507812 186 Z M 61.507812 96 "/></clipPath><clipPath id="76eefe7942"><path d="M 0.761719 0.320312 L 439 0.320312 L 439 139 L 0.761719 139 Z M 0.761719 0.320312 "/></clipPath><clipPath id="52668b142e"><rect x="0" width="439" y="0" height="139"/></clipPath><clipPath id="e52265742e"><rect x="0" width="439" y="0" height="187"/></clipPath></defs><g id="49e97a06c4"><g transform="matrix(1,0,0,1,11,106)"><g clip-path="url(#e52265742e)"><g clip-rule="nonzero" clip-path="url(#ef63445dda)"><path style=" stroke:none;fill-rule:nonzero;fill:#ffffff;fill-opacity:1;" d="M 120.480469 169.613281 L 125.644531 173.566406 L 115.347656 185.753906 L 141.015625 185.753906 L 218.898438 122.777344 L 218.898438 139.511719 L 203.78125 154.632812 L 217.457031 159.304688 L 191.003906 185.753906 L 248.613281 185.753906 L 281.09375 153.273438 L 281.09375 165.34375 L 275.386719 171.050781 L 291.996094 165.933594 L 330.980469 185.753906 L 285.1875 137.320312 L 238.515625 155.8125 L 252.5625 141.765625 L 221.34375 96.066406 L 153.976562 153.171875 L 172.46875 124.332031 L 154.609375 102.535156 L 61.511719 185.753906 L 129.015625 155.800781 L 120.480469 169.613281 "/></g><g clip-rule="nonzero" clip-path="url(#76eefe7942)"><g transform="matrix(1,0,0,1,-0.000000000000001776,-0.000000000000028422)"><g id="61635a6764" clip-path="url(#52668b142e)"><g style="fill:#ffffff;fill-opacity:1;"><g transform="translate(24.59901, 111.798198)"><path style="stroke:none" d="M 24.089844 -7.078125 C 34.789062 -10.578125 42.195312 -19.003906 39.074219 -28.542969 C 32.457031 -48.785156 7.148438 -30.503906 2.085938 -45.972656 C 0.929688 -49.515625 2.175781 -53.042969 6.730469 -54.53125 C 15.691406 -57.464844 17.875 -43.214844 26.621094 -46.074219 C 30.304688 -47.28125 31.425781 -49.96875 30.386719 -53.148438 C 28.308594 -59.75 17.410156 -63.226562 5.410156 -59.300781 C -6.515625 -55.402344 -12.074219 -46.460938 -9.074219 -37.28125 C -2.074219 -16.125 23.332031 -34.355469 27.941406 -20.261719 C 29.171875 -16.503906 27.230469 -13.386719 23.035156 -12.015625 C 12.191406 -8.46875 9.242188 -22.386719 1.410156 -19.90625 C -2.203125 -18.722656 -3.109375 -16.105469 -2.113281 -13.070312 C -0.0117188 -6.636719 10.863281 -2.753906 24.089844 -7.078125 Z M 24.089844 -7.078125 "/></g></g><g style="fill:#ffffff;fill-opacity:1;"><g transform="translate(68.560327, 97.365333)"><path style="stroke:none" d="M 40.09375 -18.09375 L 36.078125 -30.660156 C 32.382812 -42.210938 24.710938 -44.210938 18.277344 -42.675781 C 13.394531 -41.507812 10.171875 -38.628906 9.019531 -34.601562 L 8.191406 -38.078125 C 7.839844 -39.558594 6.578125 -40.585938 4.957031 -39.183594 L -4.183594 -31.605469 C -5.09375 -30.84375 -5.726562 -30.222656 -5.515625 -29.332031 L -5.460938 -29.113281 C -4.949219 -26.964844 -0.925781 -27.457031 -0.078125 -23.90625 L 3.402344 -9.335938 C 4.214844 -5.933594 1.171875 -4.265625 1.683594 -2.121094 L 1.753906 -1.824219 C 1.964844 -0.9375 2.753906 -0.578125 3.863281 -0.84375 L 19.84375 -4.65625 C 20.953125 -4.921875 21.496094 -5.597656 21.28125 -6.488281 L 21.210938 -6.78125 C 20.699219 -8.929688 17.234375 -9.039062 16.421875 -12.441406 L 12.570312 -28.570312 C 11.546875 -32.859375 12.414062 -36.113281 15.667969 -36.890625 C 18.996094 -37.6875 21.054688 -35.285156 23.171875 -28.050781 L 27.074219 -14.984375 C 28.109375 -11.632812 25.433594 -10.058594 25.945312 -7.914062 L 26.015625 -7.617188 C 26.230469 -6.730469 27.019531 -6.371094 28.128906 -6.636719 L 42.921875 -10.167969 C 43.960938 -10.414062 44.574219 -11.109375 44.363281 -11.996094 L 44.292969 -12.292969 C 43.78125 -14.4375 41.128906 -14.742188 40.09375 -18.09375 Z M 40.09375 -18.09375 "/></g></g><g style="fill:#ffffff;fill-opacity:1;"><g transform="translate(112.26919, 86.876818)"><path style="stroke:none" d="M 38.140625 -39.269531 L 38.09375 -39.570312 C 37.917969 -40.699219 37.1875 -41.433594 35.960938 -41.394531 L 26.507812 -41.308594 C 24.28125 -41.269531 22.980469 -40.21875 23.238281 -38.566406 L 23.308594 -38.117188 C 20.824219 -39.730469 17.632812 -40.464844 13.726562 -39.855469 C 4.257812 -38.378906 -2.902344 -29.488281 -1.15625 -18.292969 C 0.761719 -5.96875 10.414062 -0.851562 19.503906 -2.269531 C 23.1875 -2.84375 26.304688 -4.5625 28.15625 -7.003906 L 28.261719 -6.328125 C 28.4375 -5.199219 29.382812 -4.578125 30.507812 -4.753906 L 41.253906 -6.429688 C 42.230469 -6.582031 42.828125 -7.210938 42.6875 -8.113281 L 42.640625 -8.414062 C 42.3125 -10.519531 39.164062 -10.953125 38.625 -14.410156 L 35.886719 -31.992188 C 35.242188 -36.125 38.382812 -37.695312 38.140625 -39.269531 Z M 21.9375 -6.421875 C 16.265625 -5.765625 11.539062 -19.808594 10.78125 -26.15625 C 10.066406 -32.203125 11.59375 -35.75 15.277344 -36.324219 C 18.734375 -36.863281 22.625 -33.621094 23.503906 -27.984375 L 25.761719 -13.480469 C 26.394531 -9.425781 24.503906 -6.742188 21.9375 -6.421875 Z M 21.9375 -6.421875 "/></g></g><g style="fill:#ffffff;fill-opacity:1;"><g transform="translate(155.653046, 80.052896)"><path style="stroke:none" d="M 22.640625 -39.105469 C 18.320312 -38.773438 14.945312 -36.992188 13.253906 -34.191406 L 13.085938 -36.390625 C 12.96875 -37.90625 11.976562 -38.898438 9.785156 -37.664062 L 0.152344 -31.96875 C -0.863281 -31.28125 -1.496094 -30.546875 -1.425781 -29.636719 L -1.394531 -29.257812 C -1.226562 -27.058594 2.441406 -26.957031 2.691406 -23.699219 L 5.066406 7.394531 C 5.332031 10.882812 2.367188 12.023438 2.53125 14.144531 L 2.554688 14.449219 C 2.621094 15.359375 3.421875 15.832031 4.484375 15.75 L 20.558594 14.523438 C 21.621094 14.441406 22.339844 13.855469 22.269531 12.945312 L 22.246094 12.640625 C 22.085938 10.515625 18.601562 9.867188 18.335938 6.378906 L 17.632812 -2.796875 C 19.792969 -1.511719 22.351562 -0.945312 25.539062 -1.1875 C 34.941406 -1.90625 42.855469 -10.136719 41.9375 -22.121094 C 40.996094 -34.480469 31.210938 -39.757812 22.640625 -39.105469 Z M 24.039062 -4.8125 C 20.703125 -4.554688 17.1875 -8.636719 16.695312 -15.082031 L 15.648438 -28.808594 C 15.375 -32.371094 17.011719 -34.9375 19.738281 -35.144531 C 25.277344 -35.566406 28.449219 -22.996094 29.074219 -14.804688 C 29.546875 -8.589844 27.90625 -5.105469 24.039062 -4.8125 Z M 24.039062 -4.8125 "/></g></g><g style="fill:#ffffff;fill-opacity:1;"><g transform="translate(199.069056, 76.805667)"><path style="stroke:none" d="M 33.558594 -12.171875 C 32.199219 -10.339844 29.238281 -8.804688 25.4375 -8.789062 C 21.179688 -8.769531 17.820312 -11.109375 15.824219 -14.902344 C 18.109375 -14.839844 20.769531 -15.003906 23.429688 -15.472656 C 30.574219 -16.644531 35.570312 -21.082031 35.546875 -26.402344 C 35.515625 -33.097656 29.410156 -37.480469 20.359375 -37.359375 C 10.171875 -37.238281 1.535156 -29.820312 1.585938 -18.488281 C 1.640625 -7.003906 9.664062 0.714844 20.917969 0.664062 C 31.871094 0.613281 36.167969 -6.9375 36.378906 -11.121094 C 36.445312 -12.792969 34.617188 -13.242188 33.558594 -12.171875 Z M 18.78125 -33.324219 C 21.292969 -33.335938 23.207031 -30.679688 23.296875 -27.335938 C 23.320312 -22.089844 21.507812 -19.722656 18.164062 -19.097656 C 17.175781 -18.941406 15.808594 -18.859375 14.363281 -18.929688 C 13.898438 -20.75 13.660156 -22.726562 13.652344 -24.78125 C 13.628906 -29.800781 15.664062 -33.308594 18.78125 -33.324219 Z M 18.78125 -33.324219 "/></g></g><g style="fill:#ffffff;fill-opacity:1;"><g transform="translate(235.524191, 76.643051)"><path style="stroke:none" d="M 29.484375 -35.625 C 24.246094 -35.925781 20.523438 -33.476562 18.570312 -28.714844 L 18.890625 -34.257812 C 18.980469 -35.773438 18.28125 -36.882812 16.253906 -36.085938 L 5.257812 -31.691406 C 4.085938 -31.148438 3.4375 -30.5 3.386719 -29.589844 L 3.371094 -29.363281 C 3.246094 -27.160156 6.871094 -26.648438 6.667969 -23.078125 L 5.792969 -7.96875 C 5.589844 -4.476562 2.5 -3.742188 2.378906 -1.613281 L 2.359375 -1.3125 C 2.308594 -0.398438 3.035156 0.175781 4.101562 0.238281 L 20.425781 1.179688 C 21.488281 1.242188 22.277344 0.753906 22.328125 -0.15625 L 22.347656 -0.460938 C 22.46875 -2.585938 18.5 -3.730469 18.699219 -7.222656 L 19.515625 -21.34375 C 19.710938 -24.6875 20.316406 -28.613281 22.746094 -28.472656 C 26.542969 -28.253906 23.019531 -21.296875 29.925781 -20.894531 C 34.332031 -20.640625 35.96875 -23.898438 36.1875 -27.695312 C 36.433594 -31.945312 33.964844 -35.367188 29.484375 -35.625 Z M 29.484375 -35.625 "/></g></g><g style="fill:#ffffff;fill-opacity:1;"><g transform="translate(268.241454, 78.121153)"><path style="stroke:none" d="M 40.636719 -23.878906 C 46.09375 -24.527344 50.117188 -28.210938 50.871094 -33.863281 C 51.882812 -41.402344 46.507812 -48.261719 32.9375 -50.074219 L 12.054688 -52.867188 C 11 -53.007812 10.175781 -52.582031 10.054688 -51.675781 L 10.015625 -51.375 C 9.734375 -49.265625 12.628906 -47.957031 12.164062 -44.488281 L 7.203125 -7.398438 C 6.742188 -3.933594 3.605469 -3.429688 3.324219 -1.320312 L 3.28125 -1.019531 C 3.160156 -0.113281 3.84375 0.515625 4.898438 0.65625 L 25.554688 3.417969 C 42.96875 5.746094 51.632812 0.613281 52.824219 -8.28125 C 53.792969 -15.519531 49.144531 -21.511719 40.636719 -23.878906 Z M 25.601562 -41.695312 C 26.003906 -44.710938 27.707031 -45.402344 29.667969 -45.140625 L 31.777344 -44.859375 C 36.90625 -44.171875 39.792969 -39.949219 38.925781 -33.46875 C 38.351562 -29.171875 35.492188 -26.714844 31.648438 -27.226562 L 27.878906 -27.730469 C 25.464844 -28.054688 24 -29.707031 24.332031 -32.195312 Z M 29.652344 -1.40625 L 26.035156 -1.890625 C 22.566406 -2.355469 20.753906 -5.433594 21.238281 -9.054688 L 23.101562 -23 L 26.269531 -22.574219 C 35.3125 -21.367188 38.984375 -13.816406 38.238281 -8.238281 C 37.613281 -3.566406 34.476562 -0.761719 29.652344 -1.40625 Z M 29.652344 -1.40625 "/></g></g><g style="fill:#ffffff;fill-opacity:1;"><g transform="translate(318.617457, 84.921444)"><path style="stroke:none" d="M 49.8125 -22.703125 L 49.878906 -23 C 50.125 -24.113281 49.710938 -25.0625 48.558594 -25.472656 L 39.71875 -28.832031 C 37.632812 -29.605469 36.039062 -29.101562 35.679688 -27.46875 L 35.578125 -27.023438 C 33.855469 -29.429688 31.144531 -31.273438 27.285156 -32.128906 C 17.929688 -34.199219 8.027344 -28.523438 5.578125 -17.460938 C 2.882812 -5.28125 10.007812 2.992188 18.992188 4.984375 C 22.632812 5.789062 26.164062 5.324219 28.777344 3.71875 L 28.628906 4.386719 C 28.382812 5.503906 29.035156 6.425781 30.148438 6.671875 L 40.765625 9.023438 C 41.730469 9.234375 42.515625 8.863281 42.710938 7.972656 L 42.777344 7.675781 C 43.238281 5.597656 40.464844 4.046875 41.222656 0.632812 L 45.066406 -16.742188 C 45.972656 -20.828125 49.46875 -21.144531 49.8125 -22.703125 Z M 22.769531 2 C 17.25 0.546875 17.953125 -14.253906 19.558594 -20.441406 C 21.09375 -26.332031 23.804688 -29.082031 27.445312 -28.277344 C 30.859375 -27.519531 33.304688 -23.085938 32.074219 -17.515625 L 28.902344 -3.183594 C 28.015625 0.824219 25.277344 2.632812 22.769531 2 Z M 22.769531 2 "/></g></g><g style="fill:#ffffff;fill-opacity:1;"><g transform="translate(361.536776, 94.394224)"><path style="stroke:none" d="M 46.027344 -24.660156 L 34.71875 -26.421875 C 33.65625 -26.585938 32.78125 -26.058594 32.539062 -25.257812 L 32.449219 -24.964844 C 31.898438 -23.144531 34.617188 -21.367188 33.578125 -17.945312 L 29.230469 -3.609375 C 28.082031 0.175781 25.039062 2.351562 22.34375 1.535156 C 19.652344 0.71875 18.808594 -2.003906 20.46875 -7.222656 L 27.222656 -28.695312 C 27.621094 -30.007812 26.445312 -30.839844 24.246094 -31.191406 L 12.960938 -33.023438 C 11.898438 -33.1875 11.019531 -32.660156 10.777344 -31.859375 L 10.691406 -31.566406 C 10.136719 -29.746094 12.785156 -27.992188 11.746094 -24.570312 L 8.058594 -12.417969 C 5.519531 -4.046875 10.1875 3.089844 17.03125 5.167969 C 20.886719 6.335938 24.011719 6.253906 26.558594 5.195312 L 26.535156 5.269531 C 23.355469 15.75 19.835938 18.179688 16.65625 17.132812 C 9.789062 14.890625 15.53125 4.078125 8.035156 1.800781 C 4.761719 0.808594 2.207031 2.417969 1.410156 5.039062 C -0.554688 11.515625 5.992188 17.714844 14.214844 20.207031 C 24.839844 23.433594 35.980469 19.976562 39.890625 7.09375 L 48.765625 -22.160156 C 49.164062 -23.472656 48.226562 -24.3125 46.027344 -24.660156 Z M 46.027344 -24.660156 "/></g></g><g style="fill:#ffffff;fill-opacity:1;"><g transform="translate(401.834791, 106.962931)"><path style="stroke:none" d=""/></g></g></g></g></g></g></g></g></svg>